<mxfile host="app.diagrams.net" modified="2021-07-28T06:59:16.456Z" agent="5.0 (Windows NT 10.0; Win64; x64) AppleWebKit/537.36 (KHTML, like Gecko) Chrome/92.0.4515.107 Safari/537.36" etag="VnN_KThzYTbr4I5_yQud" version="14.9.2" type="github">
  <diagram id="mgxBa7Ej9O-xiKlKDvdm" name="第 1 页">
    <mxGraphModel dx="1422" dy="762" grid="1" gridSize="10" guides="1" tooltips="1" connect="1" arrows="1" fold="1" page="1" pageScale="1" pageWidth="827" pageHeight="1169" math="0" shadow="0">
      <root>
        <mxCell id="0" />
        <mxCell id="1" parent="0" />
        <mxCell id="Expkw4AezROeeRGGWl-h-97" value="链表指针" style="edgeStyle=orthogonalEdgeStyle;rounded=0;orthogonalLoop=1;jettySize=auto;html=1;exitX=1;exitY=0;exitDx=0;exitDy=0;entryX=0;entryY=0;entryDx=0;entryDy=0;fontSize=14;" edge="1" parent="1" source="Expkw4AezROeeRGGWl-h-3" target="Expkw4AezROeeRGGWl-h-4">
          <mxGeometry relative="1" as="geometry" />
        </mxCell>
        <mxCell id="Expkw4AezROeeRGGWl-h-107" style="edgeStyle=orthogonalEdgeStyle;rounded=0;orthogonalLoop=1;jettySize=auto;html=1;entryX=0.5;entryY=0;entryDx=0;entryDy=0;fontSize=14;" edge="1" parent="1" source="Expkw4AezROeeRGGWl-h-3" target="Expkw4AezROeeRGGWl-h-54">
          <mxGeometry relative="1" as="geometry" />
        </mxCell>
        <mxCell id="Expkw4AezROeeRGGWl-h-3" value="&lt;div&gt;&lt;span&gt;数据页&lt;/span&gt;&lt;/div&gt;" style="rounded=0;whiteSpace=wrap;html=1;fillColor=#dae8fc;strokeColor=#6c8ebf;align=center;verticalAlign=top;" vertex="1" parent="1">
          <mxGeometry x="40" y="120" width="80" height="200" as="geometry" />
        </mxCell>
        <mxCell id="Expkw4AezROeeRGGWl-h-98" value="链表指针" style="edgeStyle=orthogonalEdgeStyle;rounded=0;orthogonalLoop=1;jettySize=auto;html=1;exitX=0;exitY=1;exitDx=0;exitDy=0;entryX=1;entryY=1;entryDx=0;entryDy=0;fontSize=14;" edge="1" parent="1" source="Expkw4AezROeeRGGWl-h-4" target="Expkw4AezROeeRGGWl-h-3">
          <mxGeometry relative="1" as="geometry" />
        </mxCell>
        <mxCell id="Expkw4AezROeeRGGWl-h-99" value="链表指针" style="edgeStyle=orthogonalEdgeStyle;rounded=0;orthogonalLoop=1;jettySize=auto;html=1;exitX=1;exitY=0;exitDx=0;exitDy=0;entryX=0;entryY=0;entryDx=0;entryDy=0;fontSize=14;" edge="1" parent="1" source="Expkw4AezROeeRGGWl-h-4" target="Expkw4AezROeeRGGWl-h-5">
          <mxGeometry relative="1" as="geometry" />
        </mxCell>
        <mxCell id="Expkw4AezROeeRGGWl-h-106" style="edgeStyle=orthogonalEdgeStyle;rounded=0;orthogonalLoop=1;jettySize=auto;html=1;entryX=0.5;entryY=0;entryDx=0;entryDy=0;fontSize=14;" edge="1" parent="1" source="Expkw4AezROeeRGGWl-h-4" target="Expkw4AezROeeRGGWl-h-65">
          <mxGeometry relative="1" as="geometry" />
        </mxCell>
        <mxCell id="Expkw4AezROeeRGGWl-h-4" value="&lt;span&gt;数据页&lt;/span&gt;" style="rounded=0;whiteSpace=wrap;html=1;fillColor=#dae8fc;strokeColor=#6c8ebf;verticalAlign=top;" vertex="1" parent="1">
          <mxGeometry x="200" y="120" width="80" height="200" as="geometry" />
        </mxCell>
        <mxCell id="Expkw4AezROeeRGGWl-h-100" value="链表指针" style="edgeStyle=orthogonalEdgeStyle;rounded=0;orthogonalLoop=1;jettySize=auto;html=1;exitX=0;exitY=1;exitDx=0;exitDy=0;entryX=1;entryY=1;entryDx=0;entryDy=0;fontSize=14;" edge="1" parent="1" source="Expkw4AezROeeRGGWl-h-5" target="Expkw4AezROeeRGGWl-h-4">
          <mxGeometry relative="1" as="geometry" />
        </mxCell>
        <mxCell id="Expkw4AezROeeRGGWl-h-103" value="链表指针" style="edgeStyle=orthogonalEdgeStyle;rounded=0;orthogonalLoop=1;jettySize=auto;html=1;exitX=1;exitY=0;exitDx=0;exitDy=0;entryX=0;entryY=0;entryDx=0;entryDy=0;fontSize=14;" edge="1" parent="1" source="Expkw4AezROeeRGGWl-h-5" target="Expkw4AezROeeRGGWl-h-13">
          <mxGeometry relative="1" as="geometry" />
        </mxCell>
        <mxCell id="Expkw4AezROeeRGGWl-h-104" style="edgeStyle=orthogonalEdgeStyle;rounded=0;orthogonalLoop=1;jettySize=auto;html=1;entryX=0.5;entryY=0;entryDx=0;entryDy=0;fontSize=14;" edge="1" parent="1" source="Expkw4AezROeeRGGWl-h-5" target="Expkw4AezROeeRGGWl-h-75">
          <mxGeometry relative="1" as="geometry" />
        </mxCell>
        <mxCell id="Expkw4AezROeeRGGWl-h-5" value="&lt;span&gt;数据页&lt;/span&gt;" style="rounded=0;whiteSpace=wrap;html=1;fillColor=#dae8fc;strokeColor=#6c8ebf;verticalAlign=top;" vertex="1" parent="1">
          <mxGeometry x="360" y="120" width="80" height="200" as="geometry" />
        </mxCell>
        <mxCell id="Expkw4AezROeeRGGWl-h-101" value="链表指针" style="edgeStyle=orthogonalEdgeStyle;rounded=0;orthogonalLoop=1;jettySize=auto;html=1;exitX=0;exitY=1;exitDx=0;exitDy=0;entryX=1;entryY=1;entryDx=0;entryDy=0;fontSize=14;" edge="1" parent="1" source="Expkw4AezROeeRGGWl-h-13" target="Expkw4AezROeeRGGWl-h-5">
          <mxGeometry relative="1" as="geometry" />
        </mxCell>
        <mxCell id="Expkw4AezROeeRGGWl-h-105" style="edgeStyle=orthogonalEdgeStyle;rounded=0;orthogonalLoop=1;jettySize=auto;html=1;fontSize=14;" edge="1" parent="1" source="Expkw4AezROeeRGGWl-h-13" target="Expkw4AezROeeRGGWl-h-85">
          <mxGeometry relative="1" as="geometry" />
        </mxCell>
        <mxCell id="Expkw4AezROeeRGGWl-h-13" value="数据页" style="rounded=0;whiteSpace=wrap;html=1;fillColor=#dae8fc;strokeColor=#6c8ebf;verticalAlign=top;" vertex="1" parent="1">
          <mxGeometry x="520" y="120" width="80" height="200" as="geometry" />
        </mxCell>
        <mxCell id="Expkw4AezROeeRGGWl-h-18" value="&lt;font style=&quot;font-size: 16px&quot;&gt;磁盘数据页的存储结构&lt;/font&gt;" style="text;html=1;strokeColor=#d6b656;fillColor=#fff2cc;align=center;verticalAlign=middle;whiteSpace=wrap;rounded=0;" vertex="1" parent="1">
          <mxGeometry x="294" y="10" width="240" height="60" as="geometry" />
        </mxCell>
        <mxCell id="Expkw4AezROeeRGGWl-h-24" style="edgeStyle=orthogonalEdgeStyle;rounded=0;orthogonalLoop=1;jettySize=auto;html=1;entryX=0.5;entryY=0;entryDx=0;entryDy=0;" edge="1" parent="1" source="Expkw4AezROeeRGGWl-h-19" target="Expkw4AezROeeRGGWl-h-21">
          <mxGeometry relative="1" as="geometry" />
        </mxCell>
        <mxCell id="Expkw4AezROeeRGGWl-h-19" value="数据行" style="rounded=1;whiteSpace=wrap;html=1;verticalAlign=middle;fillColor=#f9f7ed;strokeColor=#36393d;" vertex="1" parent="1">
          <mxGeometry x="45" y="160" width="70" height="20" as="geometry" />
        </mxCell>
        <mxCell id="Expkw4AezROeeRGGWl-h-26" style="edgeStyle=orthogonalEdgeStyle;rounded=0;orthogonalLoop=1;jettySize=auto;html=1;entryX=0.5;entryY=0;entryDx=0;entryDy=0;" edge="1" parent="1" source="Expkw4AezROeeRGGWl-h-21" target="Expkw4AezROeeRGGWl-h-22">
          <mxGeometry relative="1" as="geometry" />
        </mxCell>
        <mxCell id="Expkw4AezROeeRGGWl-h-21" value="数据行" style="rounded=1;whiteSpace=wrap;html=1;verticalAlign=middle;fillColor=#f9f7ed;strokeColor=#36393d;glass=0;" vertex="1" parent="1">
          <mxGeometry x="45" y="200" width="70" height="20" as="geometry" />
        </mxCell>
        <mxCell id="Expkw4AezROeeRGGWl-h-27" style="edgeStyle=orthogonalEdgeStyle;rounded=0;orthogonalLoop=1;jettySize=auto;html=1;entryX=0.5;entryY=0;entryDx=0;entryDy=0;" edge="1" parent="1" source="Expkw4AezROeeRGGWl-h-22" target="Expkw4AezROeeRGGWl-h-23">
          <mxGeometry relative="1" as="geometry" />
        </mxCell>
        <mxCell id="Expkw4AezROeeRGGWl-h-22" value="数据行" style="rounded=1;whiteSpace=wrap;html=1;verticalAlign=middle;fillColor=#f9f7ed;strokeColor=#36393d;" vertex="1" parent="1">
          <mxGeometry x="45" y="240" width="70" height="20" as="geometry" />
        </mxCell>
        <mxCell id="Expkw4AezROeeRGGWl-h-23" value="数据行" style="rounded=1;whiteSpace=wrap;html=1;verticalAlign=middle;fillColor=#f9f7ed;strokeColor=#36393d;" vertex="1" parent="1">
          <mxGeometry x="45" y="280" width="70" height="20" as="geometry" />
        </mxCell>
        <mxCell id="Expkw4AezROeeRGGWl-h-42" style="edgeStyle=orthogonalEdgeStyle;rounded=0;orthogonalLoop=1;jettySize=auto;html=1;entryX=0.5;entryY=0;entryDx=0;entryDy=0;" edge="1" parent="1" source="Expkw4AezROeeRGGWl-h-28" target="Expkw4AezROeeRGGWl-h-31">
          <mxGeometry relative="1" as="geometry" />
        </mxCell>
        <mxCell id="Expkw4AezROeeRGGWl-h-28" value="数据行" style="rounded=1;whiteSpace=wrap;html=1;verticalAlign=middle;fillColor=#f9f7ed;strokeColor=#36393d;" vertex="1" parent="1">
          <mxGeometry x="205" y="160" width="70" height="20" as="geometry" />
        </mxCell>
        <mxCell id="Expkw4AezROeeRGGWl-h-45" style="edgeStyle=orthogonalEdgeStyle;rounded=0;orthogonalLoop=1;jettySize=auto;html=1;" edge="1" parent="1" source="Expkw4AezROeeRGGWl-h-29" target="Expkw4AezROeeRGGWl-h-32">
          <mxGeometry relative="1" as="geometry" />
        </mxCell>
        <mxCell id="Expkw4AezROeeRGGWl-h-29" value="数据行" style="rounded=1;whiteSpace=wrap;html=1;verticalAlign=middle;fillColor=#f9f7ed;strokeColor=#36393d;" vertex="1" parent="1">
          <mxGeometry x="365" y="160" width="70" height="20" as="geometry" />
        </mxCell>
        <mxCell id="Expkw4AezROeeRGGWl-h-49" style="edgeStyle=orthogonalEdgeStyle;rounded=0;orthogonalLoop=1;jettySize=auto;html=1;entryX=0.5;entryY=0;entryDx=0;entryDy=0;" edge="1" parent="1" source="Expkw4AezROeeRGGWl-h-30" target="Expkw4AezROeeRGGWl-h-33">
          <mxGeometry relative="1" as="geometry" />
        </mxCell>
        <mxCell id="Expkw4AezROeeRGGWl-h-30" value="数据行" style="rounded=1;whiteSpace=wrap;html=1;verticalAlign=middle;fillColor=#f9f7ed;strokeColor=#36393d;" vertex="1" parent="1">
          <mxGeometry x="525" y="160" width="70" height="20" as="geometry" />
        </mxCell>
        <mxCell id="Expkw4AezROeeRGGWl-h-43" style="edgeStyle=orthogonalEdgeStyle;rounded=0;orthogonalLoop=1;jettySize=auto;html=1;" edge="1" parent="1" source="Expkw4AezROeeRGGWl-h-31" target="Expkw4AezROeeRGGWl-h-36">
          <mxGeometry relative="1" as="geometry" />
        </mxCell>
        <mxCell id="Expkw4AezROeeRGGWl-h-31" value="数据行" style="rounded=1;whiteSpace=wrap;html=1;verticalAlign=middle;fillColor=#f9f7ed;strokeColor=#36393d;" vertex="1" parent="1">
          <mxGeometry x="205" y="200" width="70" height="20" as="geometry" />
        </mxCell>
        <mxCell id="Expkw4AezROeeRGGWl-h-46" style="edgeStyle=orthogonalEdgeStyle;rounded=0;orthogonalLoop=1;jettySize=auto;html=1;" edge="1" parent="1" source="Expkw4AezROeeRGGWl-h-32" target="Expkw4AezROeeRGGWl-h-39">
          <mxGeometry relative="1" as="geometry" />
        </mxCell>
        <mxCell id="Expkw4AezROeeRGGWl-h-32" value="数据行" style="rounded=1;whiteSpace=wrap;html=1;verticalAlign=middle;fillColor=#f9f7ed;strokeColor=#36393d;" vertex="1" parent="1">
          <mxGeometry x="365" y="200" width="70" height="20" as="geometry" />
        </mxCell>
        <mxCell id="Expkw4AezROeeRGGWl-h-50" style="edgeStyle=orthogonalEdgeStyle;rounded=0;orthogonalLoop=1;jettySize=auto;html=1;entryX=0.5;entryY=0;entryDx=0;entryDy=0;" edge="1" parent="1" source="Expkw4AezROeeRGGWl-h-33" target="Expkw4AezROeeRGGWl-h-40">
          <mxGeometry relative="1" as="geometry" />
        </mxCell>
        <mxCell id="Expkw4AezROeeRGGWl-h-33" value="数据行" style="rounded=1;whiteSpace=wrap;html=1;verticalAlign=middle;fillColor=#f9f7ed;strokeColor=#36393d;" vertex="1" parent="1">
          <mxGeometry x="525" y="200" width="70" height="20" as="geometry" />
        </mxCell>
        <mxCell id="Expkw4AezROeeRGGWl-h-44" style="edgeStyle=orthogonalEdgeStyle;rounded=0;orthogonalLoop=1;jettySize=auto;html=1;" edge="1" parent="1" source="Expkw4AezROeeRGGWl-h-36" target="Expkw4AezROeeRGGWl-h-37">
          <mxGeometry relative="1" as="geometry" />
        </mxCell>
        <mxCell id="Expkw4AezROeeRGGWl-h-36" value="数据行" style="rounded=1;whiteSpace=wrap;html=1;verticalAlign=middle;fillColor=#f9f7ed;strokeColor=#36393d;" vertex="1" parent="1">
          <mxGeometry x="205" y="240" width="70" height="20" as="geometry" />
        </mxCell>
        <mxCell id="Expkw4AezROeeRGGWl-h-37" value="数据行" style="rounded=1;whiteSpace=wrap;html=1;verticalAlign=middle;fillColor=#f9f7ed;strokeColor=#36393d;" vertex="1" parent="1">
          <mxGeometry x="205" y="280" width="70" height="20" as="geometry" />
        </mxCell>
        <mxCell id="Expkw4AezROeeRGGWl-h-38" value="数据行" style="rounded=1;whiteSpace=wrap;html=1;verticalAlign=middle;fillColor=#f9f7ed;strokeColor=#36393d;" vertex="1" parent="1">
          <mxGeometry x="365" y="280" width="70" height="20" as="geometry" />
        </mxCell>
        <mxCell id="Expkw4AezROeeRGGWl-h-47" style="edgeStyle=orthogonalEdgeStyle;rounded=0;orthogonalLoop=1;jettySize=auto;html=1;" edge="1" parent="1" source="Expkw4AezROeeRGGWl-h-39" target="Expkw4AezROeeRGGWl-h-38">
          <mxGeometry relative="1" as="geometry" />
        </mxCell>
        <mxCell id="Expkw4AezROeeRGGWl-h-39" value="数据行" style="rounded=1;whiteSpace=wrap;html=1;verticalAlign=middle;fillColor=#f9f7ed;strokeColor=#36393d;" vertex="1" parent="1">
          <mxGeometry x="365" y="240" width="70" height="20" as="geometry" />
        </mxCell>
        <mxCell id="Expkw4AezROeeRGGWl-h-51" style="edgeStyle=orthogonalEdgeStyle;rounded=0;orthogonalLoop=1;jettySize=auto;html=1;entryX=0.5;entryY=0;entryDx=0;entryDy=0;" edge="1" parent="1" source="Expkw4AezROeeRGGWl-h-40" target="Expkw4AezROeeRGGWl-h-41">
          <mxGeometry relative="1" as="geometry" />
        </mxCell>
        <mxCell id="Expkw4AezROeeRGGWl-h-40" value="数据行" style="rounded=1;whiteSpace=wrap;html=1;verticalAlign=middle;fillColor=#f9f7ed;strokeColor=#36393d;" vertex="1" parent="1">
          <mxGeometry x="525" y="240" width="70" height="20" as="geometry" />
        </mxCell>
        <mxCell id="Expkw4AezROeeRGGWl-h-41" value="数据行" style="rounded=1;whiteSpace=wrap;html=1;verticalAlign=middle;fillColor=#f9f7ed;strokeColor=#36393d;" vertex="1" parent="1">
          <mxGeometry x="525" y="280" width="70" height="20" as="geometry" />
        </mxCell>
        <mxCell id="Expkw4AezROeeRGGWl-h-52" value="&amp;nbsp; &amp;nbsp; 数据页之间采用双向链表，数据页里的每一行数据都会按照主键大小进行排序存储，每一行数据都有指针指向下一行数据的位置，组成单向链表" style="text;strokeColor=#d6b656;fillColor=#fff2cc;align=left;verticalAlign=middle;rounded=1;glass=0;fontSize=14;horizontal=1;labelBorderColor=none;labelBackgroundColor=none;html=1;whiteSpace=wrap;" vertex="1" parent="1">
          <mxGeometry x="640" y="120" width="160" height="200" as="geometry" />
        </mxCell>
        <mxCell id="Expkw4AezROeeRGGWl-h-54" value="页目录" style="rounded=0;whiteSpace=wrap;html=1;glass=0;labelBackgroundColor=none;fontSize=14;align=center;verticalAlign=top;fillColor=#f8cecc;strokeColor=#b85450;" vertex="1" parent="1">
          <mxGeometry x="20" y="360" width="120" height="160" as="geometry" />
        </mxCell>
        <mxCell id="Expkw4AezROeeRGGWl-h-57" style="edgeStyle=orthogonalEdgeStyle;rounded=0;orthogonalLoop=1;jettySize=auto;html=1;fontSize=14;" edge="1" parent="1" source="Expkw4AezROeeRGGWl-h-55" target="Expkw4AezROeeRGGWl-h-56">
          <mxGeometry relative="1" as="geometry" />
        </mxCell>
        <mxCell id="Expkw4AezROeeRGGWl-h-55" value="主键" style="rounded=0;whiteSpace=wrap;html=1;glass=0;labelBackgroundColor=none;fontSize=14;align=center;verticalAlign=middle;" vertex="1" parent="1">
          <mxGeometry x="30" y="400" width="40" height="20" as="geometry" />
        </mxCell>
        <mxCell id="Expkw4AezROeeRGGWl-h-56" value="槽位" style="rounded=0;whiteSpace=wrap;html=1;glass=0;labelBackgroundColor=none;fontSize=14;align=center;verticalAlign=middle;" vertex="1" parent="1">
          <mxGeometry x="90" y="400" width="40" height="20" as="geometry" />
        </mxCell>
        <mxCell id="Expkw4AezROeeRGGWl-h-62" style="edgeStyle=orthogonalEdgeStyle;rounded=0;orthogonalLoop=1;jettySize=auto;html=1;entryX=0;entryY=0.5;entryDx=0;entryDy=0;fontSize=14;" edge="1" parent="1" source="Expkw4AezROeeRGGWl-h-58" target="Expkw4AezROeeRGGWl-h-60">
          <mxGeometry relative="1" as="geometry" />
        </mxCell>
        <mxCell id="Expkw4AezROeeRGGWl-h-58" value="主键" style="rounded=0;whiteSpace=wrap;html=1;glass=0;labelBackgroundColor=none;fontSize=14;align=center;verticalAlign=middle;" vertex="1" parent="1">
          <mxGeometry x="30" y="440" width="40" height="20" as="geometry" />
        </mxCell>
        <mxCell id="Expkw4AezROeeRGGWl-h-63" style="edgeStyle=orthogonalEdgeStyle;rounded=0;orthogonalLoop=1;jettySize=auto;html=1;fontSize=14;" edge="1" parent="1" source="Expkw4AezROeeRGGWl-h-59" target="Expkw4AezROeeRGGWl-h-61">
          <mxGeometry relative="1" as="geometry" />
        </mxCell>
        <mxCell id="Expkw4AezROeeRGGWl-h-59" value="主键" style="rounded=0;whiteSpace=wrap;html=1;glass=0;labelBackgroundColor=none;fontSize=14;align=center;verticalAlign=middle;" vertex="1" parent="1">
          <mxGeometry x="30" y="480" width="40" height="20" as="geometry" />
        </mxCell>
        <mxCell id="Expkw4AezROeeRGGWl-h-60" value="槽位" style="rounded=0;whiteSpace=wrap;html=1;glass=0;labelBackgroundColor=none;fontSize=14;align=center;verticalAlign=middle;" vertex="1" parent="1">
          <mxGeometry x="90" y="440" width="40" height="20" as="geometry" />
        </mxCell>
        <mxCell id="Expkw4AezROeeRGGWl-h-61" value="槽位" style="rounded=0;whiteSpace=wrap;html=1;glass=0;labelBackgroundColor=none;fontSize=14;align=center;verticalAlign=middle;" vertex="1" parent="1">
          <mxGeometry x="90" y="480" width="40" height="20" as="geometry" />
        </mxCell>
        <mxCell id="Expkw4AezROeeRGGWl-h-65" value="页目录" style="rounded=0;whiteSpace=wrap;html=1;glass=0;labelBackgroundColor=none;fontSize=14;align=center;verticalAlign=top;fillColor=#f8cecc;strokeColor=#b85450;" vertex="1" parent="1">
          <mxGeometry x="180" y="360" width="120" height="160" as="geometry" />
        </mxCell>
        <mxCell id="Expkw4AezROeeRGGWl-h-66" style="edgeStyle=orthogonalEdgeStyle;rounded=0;orthogonalLoop=1;jettySize=auto;html=1;fontSize=14;" edge="1" parent="1" source="Expkw4AezROeeRGGWl-h-67" target="Expkw4AezROeeRGGWl-h-68">
          <mxGeometry relative="1" as="geometry" />
        </mxCell>
        <mxCell id="Expkw4AezROeeRGGWl-h-67" value="主键" style="rounded=0;whiteSpace=wrap;html=1;glass=0;labelBackgroundColor=none;fontSize=14;align=center;verticalAlign=middle;" vertex="1" parent="1">
          <mxGeometry x="190" y="400" width="40" height="20" as="geometry" />
        </mxCell>
        <mxCell id="Expkw4AezROeeRGGWl-h-68" value="槽位" style="rounded=0;whiteSpace=wrap;html=1;glass=0;labelBackgroundColor=none;fontSize=14;align=center;verticalAlign=middle;" vertex="1" parent="1">
          <mxGeometry x="250" y="400" width="40" height="20" as="geometry" />
        </mxCell>
        <mxCell id="Expkw4AezROeeRGGWl-h-69" style="edgeStyle=orthogonalEdgeStyle;rounded=0;orthogonalLoop=1;jettySize=auto;html=1;entryX=0;entryY=0.5;entryDx=0;entryDy=0;fontSize=14;" edge="1" parent="1" source="Expkw4AezROeeRGGWl-h-70" target="Expkw4AezROeeRGGWl-h-73">
          <mxGeometry relative="1" as="geometry" />
        </mxCell>
        <mxCell id="Expkw4AezROeeRGGWl-h-70" value="主键" style="rounded=0;whiteSpace=wrap;html=1;glass=0;labelBackgroundColor=none;fontSize=14;align=center;verticalAlign=middle;" vertex="1" parent="1">
          <mxGeometry x="190" y="440" width="40" height="20" as="geometry" />
        </mxCell>
        <mxCell id="Expkw4AezROeeRGGWl-h-71" style="edgeStyle=orthogonalEdgeStyle;rounded=0;orthogonalLoop=1;jettySize=auto;html=1;fontSize=14;" edge="1" parent="1" source="Expkw4AezROeeRGGWl-h-72" target="Expkw4AezROeeRGGWl-h-74">
          <mxGeometry relative="1" as="geometry" />
        </mxCell>
        <mxCell id="Expkw4AezROeeRGGWl-h-72" value="主键" style="rounded=0;whiteSpace=wrap;html=1;glass=0;labelBackgroundColor=none;fontSize=14;align=center;verticalAlign=middle;" vertex="1" parent="1">
          <mxGeometry x="190" y="480" width="40" height="20" as="geometry" />
        </mxCell>
        <mxCell id="Expkw4AezROeeRGGWl-h-73" value="槽位" style="rounded=0;whiteSpace=wrap;html=1;glass=0;labelBackgroundColor=none;fontSize=14;align=center;verticalAlign=middle;" vertex="1" parent="1">
          <mxGeometry x="250" y="440" width="40" height="20" as="geometry" />
        </mxCell>
        <mxCell id="Expkw4AezROeeRGGWl-h-74" value="槽位" style="rounded=0;whiteSpace=wrap;html=1;glass=0;labelBackgroundColor=none;fontSize=14;align=center;verticalAlign=middle;" vertex="1" parent="1">
          <mxGeometry x="250" y="480" width="40" height="20" as="geometry" />
        </mxCell>
        <mxCell id="Expkw4AezROeeRGGWl-h-75" value="页目录" style="rounded=0;whiteSpace=wrap;html=1;glass=0;labelBackgroundColor=none;fontSize=14;align=center;verticalAlign=top;fillColor=#f8cecc;strokeColor=#b85450;" vertex="1" parent="1">
          <mxGeometry x="340" y="360" width="120" height="160" as="geometry" />
        </mxCell>
        <mxCell id="Expkw4AezROeeRGGWl-h-76" style="edgeStyle=orthogonalEdgeStyle;rounded=0;orthogonalLoop=1;jettySize=auto;html=1;fontSize=14;" edge="1" parent="1" source="Expkw4AezROeeRGGWl-h-77" target="Expkw4AezROeeRGGWl-h-78">
          <mxGeometry relative="1" as="geometry" />
        </mxCell>
        <mxCell id="Expkw4AezROeeRGGWl-h-77" value="主键" style="rounded=0;whiteSpace=wrap;html=1;glass=0;labelBackgroundColor=none;fontSize=14;align=center;verticalAlign=middle;" vertex="1" parent="1">
          <mxGeometry x="350" y="400" width="40" height="20" as="geometry" />
        </mxCell>
        <mxCell id="Expkw4AezROeeRGGWl-h-78" value="槽位" style="rounded=0;whiteSpace=wrap;html=1;glass=0;labelBackgroundColor=none;fontSize=14;align=center;verticalAlign=middle;" vertex="1" parent="1">
          <mxGeometry x="410" y="400" width="40" height="20" as="geometry" />
        </mxCell>
        <mxCell id="Expkw4AezROeeRGGWl-h-79" style="edgeStyle=orthogonalEdgeStyle;rounded=0;orthogonalLoop=1;jettySize=auto;html=1;entryX=0;entryY=0.5;entryDx=0;entryDy=0;fontSize=14;" edge="1" parent="1" source="Expkw4AezROeeRGGWl-h-80" target="Expkw4AezROeeRGGWl-h-83">
          <mxGeometry relative="1" as="geometry" />
        </mxCell>
        <mxCell id="Expkw4AezROeeRGGWl-h-80" value="主键" style="rounded=0;whiteSpace=wrap;html=1;glass=0;labelBackgroundColor=none;fontSize=14;align=center;verticalAlign=middle;" vertex="1" parent="1">
          <mxGeometry x="350" y="440" width="40" height="20" as="geometry" />
        </mxCell>
        <mxCell id="Expkw4AezROeeRGGWl-h-81" style="edgeStyle=orthogonalEdgeStyle;rounded=0;orthogonalLoop=1;jettySize=auto;html=1;fontSize=14;" edge="1" parent="1" source="Expkw4AezROeeRGGWl-h-82" target="Expkw4AezROeeRGGWl-h-84">
          <mxGeometry relative="1" as="geometry" />
        </mxCell>
        <mxCell id="Expkw4AezROeeRGGWl-h-82" value="主键" style="rounded=0;whiteSpace=wrap;html=1;glass=0;labelBackgroundColor=none;fontSize=14;align=center;verticalAlign=middle;" vertex="1" parent="1">
          <mxGeometry x="350" y="480" width="40" height="20" as="geometry" />
        </mxCell>
        <mxCell id="Expkw4AezROeeRGGWl-h-83" value="槽位" style="rounded=0;whiteSpace=wrap;html=1;glass=0;labelBackgroundColor=none;fontSize=14;align=center;verticalAlign=middle;" vertex="1" parent="1">
          <mxGeometry x="410" y="440" width="40" height="20" as="geometry" />
        </mxCell>
        <mxCell id="Expkw4AezROeeRGGWl-h-84" value="槽位" style="rounded=0;whiteSpace=wrap;html=1;glass=0;labelBackgroundColor=none;fontSize=14;align=center;verticalAlign=middle;" vertex="1" parent="1">
          <mxGeometry x="410" y="480" width="40" height="20" as="geometry" />
        </mxCell>
        <mxCell id="Expkw4AezROeeRGGWl-h-85" value="页目录" style="rounded=0;whiteSpace=wrap;html=1;glass=0;labelBackgroundColor=none;fontSize=14;align=center;verticalAlign=top;fillColor=#f8cecc;strokeColor=#b85450;" vertex="1" parent="1">
          <mxGeometry x="500" y="360" width="120" height="160" as="geometry" />
        </mxCell>
        <mxCell id="Expkw4AezROeeRGGWl-h-86" style="edgeStyle=orthogonalEdgeStyle;rounded=0;orthogonalLoop=1;jettySize=auto;html=1;fontSize=14;" edge="1" parent="1" source="Expkw4AezROeeRGGWl-h-87" target="Expkw4AezROeeRGGWl-h-88">
          <mxGeometry relative="1" as="geometry" />
        </mxCell>
        <mxCell id="Expkw4AezROeeRGGWl-h-87" value="主键" style="rounded=0;whiteSpace=wrap;html=1;glass=0;labelBackgroundColor=none;fontSize=14;align=center;verticalAlign=middle;" vertex="1" parent="1">
          <mxGeometry x="510" y="400" width="40" height="20" as="geometry" />
        </mxCell>
        <mxCell id="Expkw4AezROeeRGGWl-h-88" value="槽位" style="rounded=0;whiteSpace=wrap;html=1;glass=0;labelBackgroundColor=none;fontSize=14;align=center;verticalAlign=middle;" vertex="1" parent="1">
          <mxGeometry x="570" y="400" width="40" height="20" as="geometry" />
        </mxCell>
        <mxCell id="Expkw4AezROeeRGGWl-h-89" style="edgeStyle=orthogonalEdgeStyle;rounded=0;orthogonalLoop=1;jettySize=auto;html=1;entryX=0;entryY=0.5;entryDx=0;entryDy=0;fontSize=14;" edge="1" parent="1" source="Expkw4AezROeeRGGWl-h-90" target="Expkw4AezROeeRGGWl-h-93">
          <mxGeometry relative="1" as="geometry" />
        </mxCell>
        <mxCell id="Expkw4AezROeeRGGWl-h-90" value="主键" style="rounded=0;whiteSpace=wrap;html=1;glass=0;labelBackgroundColor=none;fontSize=14;align=center;verticalAlign=middle;" vertex="1" parent="1">
          <mxGeometry x="510" y="440" width="40" height="20" as="geometry" />
        </mxCell>
        <mxCell id="Expkw4AezROeeRGGWl-h-91" style="edgeStyle=orthogonalEdgeStyle;rounded=0;orthogonalLoop=1;jettySize=auto;html=1;fontSize=14;" edge="1" parent="1" source="Expkw4AezROeeRGGWl-h-92" target="Expkw4AezROeeRGGWl-h-94">
          <mxGeometry relative="1" as="geometry" />
        </mxCell>
        <mxCell id="Expkw4AezROeeRGGWl-h-92" value="主键" style="rounded=0;whiteSpace=wrap;html=1;glass=0;labelBackgroundColor=none;fontSize=14;align=center;verticalAlign=middle;" vertex="1" parent="1">
          <mxGeometry x="510" y="480" width="40" height="20" as="geometry" />
        </mxCell>
        <mxCell id="Expkw4AezROeeRGGWl-h-93" value="槽位" style="rounded=0;whiteSpace=wrap;html=1;glass=0;labelBackgroundColor=none;fontSize=14;align=center;verticalAlign=middle;" vertex="1" parent="1">
          <mxGeometry x="570" y="440" width="40" height="20" as="geometry" />
        </mxCell>
        <mxCell id="Expkw4AezROeeRGGWl-h-94" value="槽位" style="rounded=0;whiteSpace=wrap;html=1;glass=0;labelBackgroundColor=none;fontSize=14;align=center;verticalAlign=middle;" vertex="1" parent="1">
          <mxGeometry x="570" y="480" width="40" height="20" as="geometry" />
        </mxCell>
        <mxCell id="Expkw4AezROeeRGGWl-h-108" value="&amp;nbsp; &amp;nbsp; 从第一个数据页开始遍历所有数据页，把第一个数据页从磁盘上读取到内存buffer pool的缓存页里。&lt;br&gt;&amp;nbsp; &amp;nbsp; 在第一个数据页对应的缓存页里。如果根据主键查找，那么会在数据页的页目录进行二分查找。如果根据其他字段查找，通过数据行的单向链表进行遍历。" style="text;strokeColor=#d6b656;fillColor=#fff2cc;align=left;verticalAlign=middle;rounded=1;glass=0;fontSize=14;horizontal=1;labelBorderColor=none;labelBackgroundColor=none;html=1;whiteSpace=wrap;" vertex="1" parent="1">
          <mxGeometry x="640" y="335" width="160" height="230" as="geometry" />
        </mxCell>
        <mxCell id="Expkw4AezROeeRGGWl-h-153" value="双向链表" style="edgeStyle=orthogonalEdgeStyle;rounded=0;orthogonalLoop=1;jettySize=auto;html=1;exitX=0.5;exitY=0;exitDx=0;exitDy=0;entryX=0.5;entryY=0;entryDx=0;entryDy=0;fontSize=14;" edge="1" parent="1" source="Expkw4AezROeeRGGWl-h-109" target="Expkw4AezROeeRGGWl-h-136">
          <mxGeometry relative="1" as="geometry" />
        </mxCell>
        <mxCell id="Expkw4AezROeeRGGWl-h-109" value="&lt;div&gt;&lt;span&gt;数据页&lt;/span&gt;&lt;/div&gt;" style="rounded=0;whiteSpace=wrap;html=1;fillColor=#dae8fc;strokeColor=#6c8ebf;align=center;verticalAlign=top;" vertex="1" parent="1">
          <mxGeometry x="20" y="560" width="210" height="220" as="geometry" />
        </mxCell>
        <mxCell id="Expkw4AezROeeRGGWl-h-113" value="2" style="rounded=0;whiteSpace=wrap;html=1;glass=0;labelBackgroundColor=none;fontSize=14;align=center;verticalAlign=middle;fillColor=#d5e8d4;strokeColor=#82b366;" vertex="1" parent="1">
          <mxGeometry x="30" y="590" width="50" height="30" as="geometry" />
        </mxCell>
        <mxCell id="Expkw4AezROeeRGGWl-h-114" value="0" style="rounded=0;whiteSpace=wrap;html=1;glass=0;labelBackgroundColor=none;fontSize=14;align=center;verticalAlign=middle;fillColor=#d5e8d4;strokeColor=#82b366;" vertex="1" parent="1">
          <mxGeometry x="30" y="640" width="50" height="30" as="geometry" />
        </mxCell>
        <mxCell id="Expkw4AezROeeRGGWl-h-115" value="0" style="rounded=0;whiteSpace=wrap;html=1;glass=0;labelBackgroundColor=none;fontSize=14;align=center;verticalAlign=middle;fillColor=#d5e8d4;strokeColor=#82b366;" vertex="1" parent="1">
          <mxGeometry x="30" y="690" width="50" height="30" as="geometry" />
        </mxCell>
        <mxCell id="Expkw4AezROeeRGGWl-h-116" value="3" style="rounded=0;whiteSpace=wrap;html=1;glass=0;labelBackgroundColor=none;fontSize=14;align=center;verticalAlign=middle;fillColor=#d5e8d4;strokeColor=#82b366;" vertex="1" parent="1">
          <mxGeometry x="30" y="740" width="50" height="30" as="geometry" />
        </mxCell>
        <mxCell id="Expkw4AezROeeRGGWl-h-132" style="edgeStyle=orthogonalEdgeStyle;rounded=0;orthogonalLoop=1;jettySize=auto;html=1;exitX=0.5;exitY=1;exitDx=0;exitDy=0;entryX=0.5;entryY=0;entryDx=0;entryDy=0;fontSize=14;" edge="1" parent="1" source="Expkw4AezROeeRGGWl-h-117" target="Expkw4AezROeeRGGWl-h-123">
          <mxGeometry relative="1" as="geometry" />
        </mxCell>
        <mxCell id="Expkw4AezROeeRGGWl-h-117" value="指针" style="rounded=0;whiteSpace=wrap;html=1;glass=0;labelBackgroundColor=none;fontSize=14;align=center;verticalAlign=middle;fillColor=#f0a30a;strokeColor=#BD7000;fontColor=#000000;" vertex="1" parent="1">
          <mxGeometry x="80" y="590" width="45" height="30" as="geometry" />
        </mxCell>
        <mxCell id="Expkw4AezROeeRGGWl-h-134" style="edgeStyle=orthogonalEdgeStyle;rounded=0;orthogonalLoop=1;jettySize=auto;html=1;exitX=0.5;exitY=1;exitDx=0;exitDy=0;entryX=0.5;entryY=0;entryDx=0;entryDy=0;fontSize=14;" edge="1" parent="1" source="Expkw4AezROeeRGGWl-h-123" target="Expkw4AezROeeRGGWl-h-126">
          <mxGeometry relative="1" as="geometry" />
        </mxCell>
        <mxCell id="Expkw4AezROeeRGGWl-h-123" value="指针" style="rounded=0;whiteSpace=wrap;html=1;glass=0;labelBackgroundColor=none;fontSize=14;align=center;verticalAlign=middle;fillColor=#f0a30a;strokeColor=#BD7000;fontColor=#000000;" vertex="1" parent="1">
          <mxGeometry x="80" y="640" width="45" height="30" as="geometry" />
        </mxCell>
        <mxCell id="Expkw4AezROeeRGGWl-h-124" value="字段" style="rounded=0;whiteSpace=wrap;html=1;glass=0;labelBackgroundColor=none;fontSize=14;align=center;verticalAlign=middle;fillColor=#ffe6cc;strokeColor=#d79b00;" vertex="1" parent="1">
          <mxGeometry x="125" y="640" width="45" height="30" as="geometry" />
        </mxCell>
        <mxCell id="Expkw4AezROeeRGGWl-h-125" value="字段" style="rounded=0;whiteSpace=wrap;html=1;glass=0;labelBackgroundColor=none;fontSize=14;align=center;verticalAlign=middle;fillColor=#ffe6cc;strokeColor=#d79b00;" vertex="1" parent="1">
          <mxGeometry x="170" y="640" width="45" height="30" as="geometry" />
        </mxCell>
        <mxCell id="Expkw4AezROeeRGGWl-h-135" style="edgeStyle=orthogonalEdgeStyle;rounded=0;orthogonalLoop=1;jettySize=auto;html=1;exitX=0.5;exitY=1;exitDx=0;exitDy=0;entryX=0.5;entryY=0;entryDx=0;entryDy=0;fontSize=14;" edge="1" parent="1" source="Expkw4AezROeeRGGWl-h-126" target="Expkw4AezROeeRGGWl-h-129">
          <mxGeometry relative="1" as="geometry" />
        </mxCell>
        <mxCell id="Expkw4AezROeeRGGWl-h-126" value="指针" style="rounded=0;whiteSpace=wrap;html=1;glass=0;labelBackgroundColor=none;fontSize=14;align=center;verticalAlign=middle;fillColor=#f0a30a;strokeColor=#BD7000;fontColor=#000000;" vertex="1" parent="1">
          <mxGeometry x="80" y="690" width="45" height="30" as="geometry" />
        </mxCell>
        <mxCell id="Expkw4AezROeeRGGWl-h-127" value="字段" style="rounded=0;whiteSpace=wrap;html=1;glass=0;labelBackgroundColor=none;fontSize=14;align=center;verticalAlign=middle;fillColor=#ffe6cc;strokeColor=#d79b00;" vertex="1" parent="1">
          <mxGeometry x="125" y="690" width="45" height="30" as="geometry" />
        </mxCell>
        <mxCell id="Expkw4AezROeeRGGWl-h-128" value="字段" style="rounded=0;whiteSpace=wrap;html=1;glass=0;labelBackgroundColor=none;fontSize=14;align=center;verticalAlign=middle;fillColor=#ffe6cc;strokeColor=#d79b00;" vertex="1" parent="1">
          <mxGeometry x="170" y="690" width="45" height="30" as="geometry" />
        </mxCell>
        <mxCell id="Expkw4AezROeeRGGWl-h-129" value="指针" style="rounded=0;whiteSpace=wrap;html=1;glass=0;labelBackgroundColor=none;fontSize=14;align=center;verticalAlign=middle;fillColor=#f0a30a;strokeColor=#BD7000;fontColor=#000000;" vertex="1" parent="1">
          <mxGeometry x="80" y="740" width="45" height="30" as="geometry" />
        </mxCell>
        <mxCell id="Expkw4AezROeeRGGWl-h-152" value="双向链表" style="edgeStyle=orthogonalEdgeStyle;rounded=0;orthogonalLoop=1;jettySize=auto;html=1;exitX=0.5;exitY=1;exitDx=0;exitDy=0;entryX=0.5;entryY=1;entryDx=0;entryDy=0;fontSize=14;" edge="1" parent="1" source="Expkw4AezROeeRGGWl-h-136" target="Expkw4AezROeeRGGWl-h-109">
          <mxGeometry relative="1" as="geometry" />
        </mxCell>
        <mxCell id="Expkw4AezROeeRGGWl-h-136" value="&lt;div&gt;&lt;span&gt;数据页&lt;/span&gt;&lt;/div&gt;" style="rounded=0;whiteSpace=wrap;html=1;fillColor=#dae8fc;strokeColor=#6c8ebf;align=center;verticalAlign=top;" vertex="1" parent="1">
          <mxGeometry x="324" y="560" width="210" height="220" as="geometry" />
        </mxCell>
        <mxCell id="Expkw4AezROeeRGGWl-h-137" value="2" style="rounded=0;whiteSpace=wrap;html=1;glass=0;labelBackgroundColor=none;fontSize=14;align=center;verticalAlign=middle;fillColor=#d5e8d4;strokeColor=#82b366;" vertex="1" parent="1">
          <mxGeometry x="334" y="590" width="50" height="30" as="geometry" />
        </mxCell>
        <mxCell id="Expkw4AezROeeRGGWl-h-138" value="0" style="rounded=0;whiteSpace=wrap;html=1;glass=0;labelBackgroundColor=none;fontSize=14;align=center;verticalAlign=middle;fillColor=#d5e8d4;strokeColor=#82b366;" vertex="1" parent="1">
          <mxGeometry x="334" y="640" width="50" height="30" as="geometry" />
        </mxCell>
        <mxCell id="Expkw4AezROeeRGGWl-h-139" value="0" style="rounded=0;whiteSpace=wrap;html=1;glass=0;labelBackgroundColor=none;fontSize=14;align=center;verticalAlign=middle;fillColor=#d5e8d4;strokeColor=#82b366;" vertex="1" parent="1">
          <mxGeometry x="334" y="690" width="50" height="30" as="geometry" />
        </mxCell>
        <mxCell id="Expkw4AezROeeRGGWl-h-140" value="3" style="rounded=0;whiteSpace=wrap;html=1;glass=0;labelBackgroundColor=none;fontSize=14;align=center;verticalAlign=middle;fillColor=#d5e8d4;strokeColor=#82b366;" vertex="1" parent="1">
          <mxGeometry x="334" y="740" width="50" height="30" as="geometry" />
        </mxCell>
        <mxCell id="Expkw4AezROeeRGGWl-h-141" style="edgeStyle=orthogonalEdgeStyle;rounded=0;orthogonalLoop=1;jettySize=auto;html=1;exitX=0.5;exitY=1;exitDx=0;exitDy=0;entryX=0.5;entryY=0;entryDx=0;entryDy=0;fontSize=14;" edge="1" parent="1" source="Expkw4AezROeeRGGWl-h-142" target="Expkw4AezROeeRGGWl-h-144">
          <mxGeometry relative="1" as="geometry" />
        </mxCell>
        <mxCell id="Expkw4AezROeeRGGWl-h-142" value="指针" style="rounded=0;whiteSpace=wrap;html=1;glass=0;labelBackgroundColor=none;fontSize=14;align=center;verticalAlign=middle;fillColor=#f0a30a;strokeColor=#BD7000;fontColor=#000000;" vertex="1" parent="1">
          <mxGeometry x="384" y="590" width="45" height="30" as="geometry" />
        </mxCell>
        <mxCell id="Expkw4AezROeeRGGWl-h-143" style="edgeStyle=orthogonalEdgeStyle;rounded=0;orthogonalLoop=1;jettySize=auto;html=1;exitX=0.5;exitY=1;exitDx=0;exitDy=0;entryX=0.5;entryY=0;entryDx=0;entryDy=0;fontSize=14;" edge="1" parent="1" source="Expkw4AezROeeRGGWl-h-144" target="Expkw4AezROeeRGGWl-h-148">
          <mxGeometry relative="1" as="geometry" />
        </mxCell>
        <mxCell id="Expkw4AezROeeRGGWl-h-144" value="指针" style="rounded=0;whiteSpace=wrap;html=1;glass=0;labelBackgroundColor=none;fontSize=14;align=center;verticalAlign=middle;fillColor=#f0a30a;strokeColor=#BD7000;fontColor=#000000;" vertex="1" parent="1">
          <mxGeometry x="384" y="640" width="45" height="30" as="geometry" />
        </mxCell>
        <mxCell id="Expkw4AezROeeRGGWl-h-145" value="字段" style="rounded=0;whiteSpace=wrap;html=1;glass=0;labelBackgroundColor=none;fontSize=14;align=center;verticalAlign=middle;fillColor=#ffe6cc;strokeColor=#d79b00;" vertex="1" parent="1">
          <mxGeometry x="429" y="640" width="45" height="30" as="geometry" />
        </mxCell>
        <mxCell id="Expkw4AezROeeRGGWl-h-146" value="字段" style="rounded=0;whiteSpace=wrap;html=1;glass=0;labelBackgroundColor=none;fontSize=14;align=center;verticalAlign=middle;fillColor=#ffe6cc;strokeColor=#d79b00;" vertex="1" parent="1">
          <mxGeometry x="474" y="640" width="45" height="30" as="geometry" />
        </mxCell>
        <mxCell id="Expkw4AezROeeRGGWl-h-147" style="edgeStyle=orthogonalEdgeStyle;rounded=0;orthogonalLoop=1;jettySize=auto;html=1;exitX=0.5;exitY=1;exitDx=0;exitDy=0;entryX=0.5;entryY=0;entryDx=0;entryDy=0;fontSize=14;" edge="1" parent="1" source="Expkw4AezROeeRGGWl-h-148" target="Expkw4AezROeeRGGWl-h-151">
          <mxGeometry relative="1" as="geometry" />
        </mxCell>
        <mxCell id="Expkw4AezROeeRGGWl-h-148" value="指针" style="rounded=0;whiteSpace=wrap;html=1;glass=0;labelBackgroundColor=none;fontSize=14;align=center;verticalAlign=middle;fillColor=#f0a30a;strokeColor=#BD7000;fontColor=#000000;" vertex="1" parent="1">
          <mxGeometry x="384" y="690" width="45" height="30" as="geometry" />
        </mxCell>
        <mxCell id="Expkw4AezROeeRGGWl-h-149" value="字段" style="rounded=0;whiteSpace=wrap;html=1;glass=0;labelBackgroundColor=none;fontSize=14;align=center;verticalAlign=middle;fillColor=#ffe6cc;strokeColor=#d79b00;" vertex="1" parent="1">
          <mxGeometry x="429" y="690" width="45" height="30" as="geometry" />
        </mxCell>
        <mxCell id="Expkw4AezROeeRGGWl-h-150" value="字段" style="rounded=0;whiteSpace=wrap;html=1;glass=0;labelBackgroundColor=none;fontSize=14;align=center;verticalAlign=middle;fillColor=#ffe6cc;strokeColor=#d79b00;" vertex="1" parent="1">
          <mxGeometry x="474" y="690" width="45" height="30" as="geometry" />
        </mxCell>
        <mxCell id="Expkw4AezROeeRGGWl-h-151" value="指针" style="rounded=0;whiteSpace=wrap;html=1;glass=0;labelBackgroundColor=none;fontSize=14;align=center;verticalAlign=middle;fillColor=#f0a30a;strokeColor=#BD7000;fontColor=#000000;" vertex="1" parent="1">
          <mxGeometry x="384" y="740" width="45" height="30" as="geometry" />
        </mxCell>
      </root>
    </mxGraphModel>
  </diagram>
</mxfile>
